<svg width="1222" height="670" viewBox="0 0 1222 670" fill="none" xmlns="http://www.w3.org/2000/svg">
<rect x="0.5" y="23.5" width="1221" height="623" rx="74.5" stroke="#CDB028"/>
<g clip-path="url(#clip0_2344_1973)">
<path fill-rule="evenodd" clip-rule="evenodd" d="M957.38 19.6503L954 11.9863L950.62 19.6503L942.953 23.0303L950.62 26.4103L954 34.0783L957.38 26.4103L965.047 23.0303L957.38 19.6503Z" fill="#CDB028"/>
</g>
<path fill-rule="evenodd" clip-rule="evenodd" d="M211.887 640.268L205.506 625.918L199.212 640.307L184.856 646.689L199.251 652.982L205.633 667.34L211.926 652.943L226.282 646.561L211.887 640.268Z" fill="#CDB028"/>
<path fill-rule="evenodd" clip-rule="evenodd" d="M884.838 16.2186L878.5 1.84863L872.163 16.2186L857.787 22.5561L872.163 28.8936L878.5 43.2711L884.838 28.8936L899.213 22.5561L884.838 16.2186Z" fill="#CDB028"/>
<defs>
<clipPath id="clip0_2344_1973">
<rect width="24" height="24" fill="white" transform="translate(942 11)"/>
</clipPath>
</defs>
</svg>
