<svg width="1119" height="574" viewBox="0 0 1119 574" fill="none" xmlns="http://www.w3.org/2000/svg">
<path fill-rule="evenodd" clip-rule="evenodd" d="M1004.89 544.268L998.506 529.918L992.212 544.307L977.856 550.689L992.251 556.982L998.633 571.34L1004.93 556.943L1019.28 550.561L1004.89 544.268Z" fill="#CDB028"/>
<path d="M1044 23.5C1085.15 23.5 1118.5 56.8548 1118.5 98V475C1118.5 516.145 1085.15 549.5 1044 549.5H0.5V23.5H1044Z" stroke="#CDB028"/>
<g clip-path="url(#clip0_2344_1964)">
<path fill-rule="evenodd" clip-rule="evenodd" d="M333.38 19.6503L330 11.9863L326.62 19.6503L318.953 23.0303L326.62 26.4103L330 34.0783L333.38 26.4103L341.047 23.0303L333.38 19.6503Z" fill="#CDB028"/>
</g>
<path fill-rule="evenodd" clip-rule="evenodd" d="M260.837 16.2186L254.5 1.84863L248.162 16.2186L233.787 22.5561L248.162 28.8936L254.5 43.2711L260.837 28.8936L275.213 22.5561L260.837 16.2186Z" fill="#CDB028"/>
<defs>
<clipPath id="clip0_2344_1964">
<rect width="24" height="24" fill="white" transform="translate(318 11)"/>
</clipPath>
</defs>
</svg>
