<svg width="1939" height="3092" viewBox="0 0 1939 3092" fill="none" xmlns="http://www.w3.org/2000/svg">
<rect x="1694.5" y="915.5" width="1066" height="399" rx="199.5" transform="rotate(90 1694.5 915.5)" stroke="#CDB028"/>
<rect x="1016.5" y="2153.5" width="938" height="1016" rx="311.5" transform="rotate(90 1016.5 2153.5)" stroke="#CDB028"/>
<rect x="278.5" y="23.5" width="1660" height="623" rx="74.5" stroke="#CDB028"/>
<path fill-rule="evenodd" clip-rule="evenodd" d="M1679.84 16.2186L1673.5 1.84863L1667.16 16.2186L1652.79 22.5561L1667.16 28.8936L1673.5 43.2711L1679.84 28.8936L1694.21 22.5561L1679.84 16.2186Z" fill="#CDB028"/>
<path fill-rule="evenodd" clip-rule="evenodd" d="M1023.98 2707.36L1017.71 2692.96L1011.3 2707.3L996.897 2713.56L1011.24 2719.97L1017.51 2734.38L1023.92 2720.03L1038.32 2713.77L1023.98 2707.36Z" fill="#CDB028"/>
<path fill-rule="evenodd" clip-rule="evenodd" d="M1699.84 1136.22L1693.5 1121.85L1687.16 1136.22L1672.79 1142.56L1687.16 1148.89L1693.5 1163.27L1699.84 1148.89L1714.21 1142.56L1699.84 1136.22Z" fill="#CDB028"/>
<g clip-path="url(#clip0_2344_1982)">
<path fill-rule="evenodd" clip-rule="evenodd" d="M281.38 115.65L278 107.986L274.62 115.65L266.953 119.03L274.62 122.41L278 130.078L281.38 122.41L289.047 119.03L281.38 115.65Z" fill="#CDB028"/>
</g>
<path fill-rule="evenodd" clip-rule="evenodd" d="M284.401 318.661L277.5 303.013L270.599 318.661L254.946 325.561L270.599 332.462L277.5 348.118L284.401 332.462L300.054 325.561L284.401 318.661Z" fill="#CDB028"/>
<defs>
<clipPath id="clip0_2344_1982">
<rect width="24" height="24" fill="white" transform="translate(266 107)"/>
</clipPath>
</defs>
</svg>
