<svg width="1535" height="549" viewBox="0 0 1535 549" fill="none" xmlns="http://www.w3.org/2000/svg">
<g clip-path="url(#clip0_2344_1955)">
<path fill-rule="evenodd" clip-rule="evenodd" d="M455.38 18.6503L452 10.9863L448.62 18.6503L440.953 22.0303L448.62 25.4103L452 33.0783L455.38 25.4103L463.047 22.0303L455.38 18.6503Z" fill="#CDB028"/>
</g>
<path fill-rule="evenodd" clip-rule="evenodd" d="M1343.84 16.2186L1337.5 1.84863L1331.16 16.2186L1316.79 22.5561L1331.16 28.8936L1337.5 43.2711L1343.84 28.8936L1358.21 22.5561L1343.84 16.2186Z" fill="#CDB028"/>
<path d="M111 22.5H1534.5V548.5H111C62.6751 548.5 23.5 509.325 23.5 461V110C23.5 61.6751 62.6751 22.5 111 22.5Z" stroke="#CDB028"/>
<path fill-rule="evenodd" clip-rule="evenodd" d="M28.8375 257.219L22.5 242.849L16.1625 257.219L1.78687 263.556L16.1625 269.894L22.5 284.271L28.8375 269.894L43.2131 263.556L28.8375 257.219Z" fill="#CDB028"/>
<defs>
<clipPath id="clip0_2344_1955">
<rect width="24" height="24" fill="white" transform="translate(440 10)"/>
</clipPath>
</defs>
</svg>
