<svg width="1385" height="561" viewBox="0 0 1385 561" fill="none" xmlns="http://www.w3.org/2000/svg">
<path fill-rule="evenodd" clip-rule="evenodd" d="M1367.56 163.947L1360.6 149.868L1354.89 164.502L1340.81 171.462L1355.45 177.165L1362.41 191.251L1368.11 176.61L1382.2 169.65L1367.56 163.947Z" fill="#CDB028"/>
<path d="M1207 12.5C1292.33 12.5 1361.5 81.672 1361.5 167V384C1361.5 469.328 1292.33 538.5 1207 538.5H0.5V12.5H1207Z" stroke="#CDB028"/>
<path fill-rule="evenodd" clip-rule="evenodd" d="M96.8375 532.219L90.5 517.849L84.1625 532.219L69.7869 538.556L84.1625 544.894L90.5 559.271L96.8375 544.894L111.213 538.556L96.8375 532.219Z" fill="#CDB028"/>
<g clip-path="url(#clip0_2344_1946)">
<path fill-rule="evenodd" clip-rule="evenodd" d="M364.38 8.65033L361 0.986328L357.62 8.65033L349.953 12.0303L357.62 15.4103L361 23.0783L364.38 15.4103L372.047 12.0303L364.38 8.65033Z" fill="#CDB028"/>
</g>
<defs>
<clipPath id="clip0_2344_1946">
<rect width="24" height="24" fill="white" transform="translate(349)"/>
</clipPath>
</defs>
</svg>
